<mxfile host="app.diagrams.net" modified="2021-03-10T18:32:33.760Z" agent="5.0 (X11)" etag="GB8Okh60nm3owstHbm_E" version="14.4.2" type="github">
  <diagram id="1TUVtvy7PMmKe3IkzvhR" name="Page-1">
    <mxGraphModel dx="1054" dy="667" grid="1" gridSize="10" guides="1" tooltips="1" connect="1" arrows="1" fold="1" page="1" pageScale="1" pageWidth="850" pageHeight="1100" math="0" shadow="0">
      <root>
        <mxCell id="0" />
        <mxCell id="1" parent="0" />
        <mxCell id="AnQ7yjys7WpX3CtY-7kJ-1" value="&lt;div&gt;id&lt;/div&gt;&lt;div&gt;firstname&lt;/div&gt;&lt;div&gt;lastname&lt;/div&gt;&lt;div&gt;email&lt;/div&gt;&lt;div&gt;password&lt;/div&gt;&lt;div&gt;phone&lt;br&gt;&lt;/div&gt;" style="shape=internalStorage;whiteSpace=wrap;html=1;backgroundOutline=1;" vertex="1" parent="1">
          <mxGeometry x="60" y="130" width="130" height="140" as="geometry" />
        </mxCell>
        <mxCell id="AnQ7yjys7WpX3CtY-7kJ-2" value="User " style="text;html=1;strokeColor=#2D7600;fillColor=#60a917;align=center;verticalAlign=middle;whiteSpace=wrap;rounded=0;fontStyle=1;fontColor=#ffffff;" vertex="1" parent="1">
          <mxGeometry x="60" y="130" width="130" height="20" as="geometry" />
        </mxCell>
        <mxCell id="AnQ7yjys7WpX3CtY-7kJ-4" value="&lt;div&gt;id&lt;/div&gt;&lt;div&gt;amount&lt;/div&gt;&lt;div&gt;status&lt;/div&gt;&lt;div&gt;fkey: user_id&lt;br&gt;&lt;/div&gt;&lt;div&gt;fkey: address_id&lt;br&gt;&lt;/div&gt;&lt;div&gt;&lt;br&gt;&lt;/div&gt;" style="shape=internalStorage;whiteSpace=wrap;html=1;backgroundOutline=1;" vertex="1" parent="1">
          <mxGeometry x="290" y="120" width="150" height="150" as="geometry" />
        </mxCell>
        <mxCell id="AnQ7yjys7WpX3CtY-7kJ-5" value="Order" style="text;html=1;strokeColor=#2D7600;fillColor=#60a917;align=center;verticalAlign=middle;whiteSpace=wrap;rounded=0;fontStyle=1;fontColor=#ffffff;" vertex="1" parent="1">
          <mxGeometry x="290" y="120" width="150" height="20" as="geometry" />
        </mxCell>
        <mxCell id="AnQ7yjys7WpX3CtY-7kJ-6" value="&lt;div&gt;id&lt;/div&gt;&lt;div&gt;name&lt;/div&gt;&lt;div&gt;size&lt;/div&gt;&lt;div&gt;quantity&lt;/div&gt;&lt;div&gt;price&lt;/div&gt;&lt;div&gt;fkey: order_id&lt;br&gt;&lt;/div&gt;&lt;div&gt;fkey: product_id&lt;br&gt;&lt;/div&gt;" style="shape=internalStorage;whiteSpace=wrap;html=1;backgroundOutline=1;" vertex="1" parent="1">
          <mxGeometry x="540" y="110" width="160" height="150" as="geometry" />
        </mxCell>
        <mxCell id="AnQ7yjys7WpX3CtY-7kJ-7" value="Ordered_Products" style="text;html=1;strokeColor=#2D7600;fillColor=#60a917;align=center;verticalAlign=middle;whiteSpace=wrap;rounded=0;fontStyle=1;fontColor=#ffffff;" vertex="1" parent="1">
          <mxGeometry x="540" y="110" width="160" height="20" as="geometry" />
        </mxCell>
        <mxCell id="AnQ7yjys7WpX3CtY-7kJ-14" value="" style="endArrow=classic;html=1;" edge="1" parent="1">
          <mxGeometry width="50" height="50" relative="1" as="geometry">
            <mxPoint x="190" y="189.5" as="sourcePoint" />
            <mxPoint x="285" y="189.5" as="targetPoint" />
          </mxGeometry>
        </mxCell>
        <mxCell id="AnQ7yjys7WpX3CtY-7kJ-15" value="" style="endArrow=classic;html=1;" edge="1" parent="1">
          <mxGeometry width="50" height="50" relative="1" as="geometry">
            <mxPoint x="440" y="180" as="sourcePoint" />
            <mxPoint x="535" y="180" as="targetPoint" />
          </mxGeometry>
        </mxCell>
        <mxCell id="AnQ7yjys7WpX3CtY-7kJ-17" value="&lt;font style=&quot;font-size: 15px&quot;&gt;One to Many&lt;/font&gt;" style="text;html=1;strokeColor=none;fillColor=none;align=center;verticalAlign=middle;whiteSpace=wrap;rounded=0;fontColor=#CC0000;" vertex="1" parent="1">
          <mxGeometry x="210" y="140" width="50" height="40" as="geometry" />
        </mxCell>
        <mxCell id="AnQ7yjys7WpX3CtY-7kJ-20" value="&lt;div&gt;id&lt;/div&gt;&lt;div&gt;line1&lt;/div&gt;&lt;div&gt;line2&lt;/div&gt;&lt;div&gt;city&lt;/div&gt;&lt;div&gt;province&lt;/div&gt;&lt;div&gt;postal_code&lt;/div&gt;&lt;div&gt;fkey:user_id&lt;br&gt;&lt;/div&gt;" style="whiteSpace=wrap;html=1;aspect=fixed;" vertex="1" parent="1">
          <mxGeometry x="60" y="340" width="120" height="120" as="geometry" />
        </mxCell>
        <mxCell id="AnQ7yjys7WpX3CtY-7kJ-21" value="Address" style="text;html=1;strokeColor=#2D7600;fillColor=#60a917;align=center;verticalAlign=middle;whiteSpace=wrap;rounded=0;fontStyle=1;fontColor=#ffffff;" vertex="1" parent="1">
          <mxGeometry x="85" y="320" width="80" height="20" as="geometry" />
        </mxCell>
        <mxCell id="AnQ7yjys7WpX3CtY-7kJ-23" value="" style="endArrow=classic;html=1;" edge="1" parent="1">
          <mxGeometry width="50" height="50" relative="1" as="geometry">
            <mxPoint x="80" y="280" as="sourcePoint" />
            <mxPoint x="80" y="340" as="targetPoint" />
            <Array as="points">
              <mxPoint x="80" y="300" />
              <mxPoint x="80" y="280" />
              <mxPoint x="80" y="320" />
            </Array>
          </mxGeometry>
        </mxCell>
        <mxCell id="AnQ7yjys7WpX3CtY-7kJ-35" value="&lt;div&gt;id&lt;/div&gt;&lt;div&gt;name&lt;/div&gt;&lt;div&gt;description&lt;/div&gt;&lt;div&gt;size&lt;/div&gt;&lt;div&gt;quantity&lt;/div&gt;&lt;div&gt;image&lt;/div&gt;&lt;div&gt;&lt;div&gt;fkey: category_id&lt;/div&gt;&lt;div&gt;fkey: subcategory_id&lt;/div&gt;&lt;/div&gt;" style="whiteSpace=wrap;html=1;aspect=fixed;" vertex="1" parent="1">
          <mxGeometry x="560" y="330" width="130" height="130" as="geometry" />
        </mxCell>
        <mxCell id="AnQ7yjys7WpX3CtY-7kJ-39" value="" style="endArrow=classic;html=1;exitX=0.5;exitY=0;exitDx=0;exitDy=0;" edge="1" parent="1" source="AnQ7yjys7WpX3CtY-7kJ-37" target="AnQ7yjys7WpX3CtY-7kJ-6">
          <mxGeometry width="50" height="50" relative="1" as="geometry">
            <mxPoint x="390" y="370" as="sourcePoint" />
            <mxPoint x="485" y="370" as="targetPoint" />
          </mxGeometry>
        </mxCell>
        <mxCell id="AnQ7yjys7WpX3CtY-7kJ-40" value="&lt;div&gt;id&lt;/div&gt;&lt;div&gt;fkey: user_id&lt;/div&gt;&lt;div&gt;fkey: product_id&lt;br&gt;&lt;/div&gt;" style="whiteSpace=wrap;html=1;aspect=fixed;" vertex="1" parent="1">
          <mxGeometry x="320" y="340" width="120" height="120" as="geometry" />
        </mxCell>
        <mxCell id="AnQ7yjys7WpX3CtY-7kJ-41" value="&lt;div&gt;&lt;br&gt;&lt;/div&gt;&lt;div&gt;Cart&lt;/div&gt;&lt;div&gt;(join table between product and user&lt;br&gt;&lt;/div&gt;" style="text;html=1;strokeColor=#2D7600;fillColor=#60a917;align=center;verticalAlign=middle;whiteSpace=wrap;rounded=0;fontStyle=1;fontColor=#ffffff;" vertex="1" parent="1">
          <mxGeometry x="280" y="300" width="220" height="40" as="geometry" />
        </mxCell>
        <mxCell id="AnQ7yjys7WpX3CtY-7kJ-44" value="" style="endArrow=classic;html=1;exitX=1;exitY=1;exitDx=0;exitDy=0;entryX=-0.017;entryY=0.442;entryDx=0;entryDy=0;entryPerimeter=0;" edge="1" parent="1" source="AnQ7yjys7WpX3CtY-7kJ-1" target="AnQ7yjys7WpX3CtY-7kJ-40">
          <mxGeometry width="50" height="50" relative="1" as="geometry">
            <mxPoint x="380" y="360" as="sourcePoint" />
            <mxPoint x="430" y="310" as="targetPoint" />
          </mxGeometry>
        </mxCell>
        <mxCell id="AnQ7yjys7WpX3CtY-7kJ-45" value="" style="endArrow=classic;html=1;" edge="1" parent="1" source="AnQ7yjys7WpX3CtY-7kJ-35" target="AnQ7yjys7WpX3CtY-7kJ-40">
          <mxGeometry width="50" height="50" relative="1" as="geometry">
            <mxPoint x="450" y="400" as="sourcePoint" />
            <mxPoint x="430" y="310" as="targetPoint" />
          </mxGeometry>
        </mxCell>
        <mxCell id="AnQ7yjys7WpX3CtY-7kJ-48" value="&lt;div&gt;id&lt;/div&gt;&lt;div&gt;fkey: user_id&lt;/div&gt;&lt;div&gt;fkey: product_id&lt;br&gt;&lt;/div&gt;" style="whiteSpace=wrap;html=1;aspect=fixed;" vertex="1" parent="1">
          <mxGeometry x="320" y="516" width="120" height="120" as="geometry" />
        </mxCell>
        <mxCell id="AnQ7yjys7WpX3CtY-7kJ-49" value="&lt;div&gt;&lt;br&gt;&lt;/div&gt;&lt;div&gt;Wishlist&lt;br&gt;&lt;/div&gt;&lt;div&gt;(join table between product and user&lt;br&gt;&lt;/div&gt;" style="text;html=1;strokeColor=#2D7600;fillColor=#60a917;align=center;verticalAlign=middle;whiteSpace=wrap;rounded=0;fontStyle=1;fontColor=#ffffff;" vertex="1" parent="1">
          <mxGeometry x="271" y="477" width="220" height="40" as="geometry" />
        </mxCell>
        <mxCell id="AnQ7yjys7WpX3CtY-7kJ-50" value="" style="endArrow=classic;html=1;exitX=1;exitY=1;exitDx=0;exitDy=0;" edge="1" parent="1">
          <mxGeometry width="50" height="50" relative="1" as="geometry">
            <mxPoint x="160" y="268.48" as="sourcePoint" />
            <mxPoint x="310" y="600" as="targetPoint" />
          </mxGeometry>
        </mxCell>
        <mxCell id="AnQ7yjys7WpX3CtY-7kJ-51" value="" style="endArrow=classic;html=1;exitX=0;exitY=0.75;exitDx=0;exitDy=0;entryX=1;entryY=0.75;entryDx=0;entryDy=0;" edge="1" parent="1" source="AnQ7yjys7WpX3CtY-7kJ-35" target="AnQ7yjys7WpX3CtY-7kJ-48">
          <mxGeometry width="50" height="50" relative="1" as="geometry">
            <mxPoint x="570" y="402.5" as="sourcePoint" />
            <mxPoint x="450" y="570" as="targetPoint" />
          </mxGeometry>
        </mxCell>
        <mxCell id="AnQ7yjys7WpX3CtY-7kJ-37" value="Product" style="text;html=1;strokeColor=#2D7600;fillColor=#60a917;align=center;verticalAlign=middle;whiteSpace=wrap;rounded=0;fontStyle=1;fontColor=#ffffff;" vertex="1" parent="1">
          <mxGeometry x="580" y="310" width="80" height="20" as="geometry" />
        </mxCell>
        <mxCell id="AnQ7yjys7WpX3CtY-7kJ-52" value="" style="endArrow=classic;html=1;exitX=0.5;exitY=0;exitDx=0;exitDy=0;" edge="1" parent="1" source="AnQ7yjys7WpX3CtY-7kJ-35" target="AnQ7yjys7WpX3CtY-7kJ-37">
          <mxGeometry width="50" height="50" relative="1" as="geometry">
            <mxPoint x="620" y="330" as="sourcePoint" />
            <mxPoint x="620" y="260" as="targetPoint" />
          </mxGeometry>
        </mxCell>
        <mxCell id="AnQ7yjys7WpX3CtY-7kJ-56" value="&lt;font style=&quot;font-size: 15px&quot;&gt;One to Many&lt;/font&gt;" style="text;html=1;strokeColor=none;fillColor=none;align=center;verticalAlign=middle;whiteSpace=wrap;rounded=0;fontColor=#CC0000;" vertex="1" parent="1">
          <mxGeometry x="470" y="140" width="50" height="40" as="geometry" />
        </mxCell>
        <mxCell id="AnQ7yjys7WpX3CtY-7kJ-57" value="&lt;font style=&quot;font-size: 15px&quot;&gt;One to Many&lt;/font&gt;" style="text;html=1;strokeColor=none;fillColor=none;align=center;verticalAlign=middle;whiteSpace=wrap;rounded=0;fontColor=#CC0000;" vertex="1" parent="1">
          <mxGeometry x="20" y="290" width="50" height="40" as="geometry" />
        </mxCell>
        <mxCell id="AnQ7yjys7WpX3CtY-7kJ-58" value="&lt;font style=&quot;font-size: 15px&quot;&gt;One to One&lt;br&gt;&lt;/font&gt;" style="text;html=1;strokeColor=none;fillColor=none;align=center;verticalAlign=middle;whiteSpace=wrap;rounded=0;fontColor=#CC0000;" vertex="1" parent="1">
          <mxGeometry x="620" y="290" width="50" as="geometry" />
        </mxCell>
        <mxCell id="AnQ7yjys7WpX3CtY-7kJ-59" style="edgeStyle=orthogonalEdgeStyle;rounded=0;orthogonalLoop=1;jettySize=auto;html=1;exitX=0.5;exitY=0;exitDx=0;exitDy=0;entryX=0.25;entryY=0;entryDx=0;entryDy=0;fontSize=14;fontColor=#CC0000;" edge="1" parent="1" source="AnQ7yjys7WpX3CtY-7kJ-58" target="AnQ7yjys7WpX3CtY-7kJ-58">
          <mxGeometry relative="1" as="geometry" />
        </mxCell>
        <mxCell id="AnQ7yjys7WpX3CtY-7kJ-60" value="&lt;div&gt;id&lt;/div&gt;&lt;div&gt;name&lt;br&gt;&lt;/div&gt;" style="whiteSpace=wrap;html=1;aspect=fixed;" vertex="1" parent="1">
          <mxGeometry x="560" y="550" width="85" height="85" as="geometry" />
        </mxCell>
        <mxCell id="AnQ7yjys7WpX3CtY-7kJ-61" value="&lt;div&gt;id&lt;/div&gt;&lt;div&gt;name&lt;br&gt;&lt;/div&gt;" style="whiteSpace=wrap;html=1;aspect=fixed;" vertex="1" parent="1">
          <mxGeometry x="710" y="550" width="85" height="85" as="geometry" />
        </mxCell>
        <mxCell id="AnQ7yjys7WpX3CtY-7kJ-73" style="edgeStyle=orthogonalEdgeStyle;rounded=0;orthogonalLoop=1;jettySize=auto;html=1;entryX=1;entryY=0.5;entryDx=0;entryDy=0;fontSize=14;fontColor=#CC0000;" edge="1" parent="1" source="AnQ7yjys7WpX3CtY-7kJ-62" target="AnQ7yjys7WpX3CtY-7kJ-35">
          <mxGeometry relative="1" as="geometry">
            <Array as="points">
              <mxPoint x="740" y="495" />
              <mxPoint x="710" y="495" />
              <mxPoint x="710" y="395" />
            </Array>
          </mxGeometry>
        </mxCell>
        <mxCell id="AnQ7yjys7WpX3CtY-7kJ-62" value="Sub-Category" style="text;html=1;strokeColor=#2D7600;fillColor=#60a917;align=center;verticalAlign=middle;whiteSpace=wrap;rounded=0;fontStyle=1;fontColor=#ffffff;" vertex="1" parent="1">
          <mxGeometry x="700" y="530" width="95" height="20" as="geometry" />
        </mxCell>
        <mxCell id="AnQ7yjys7WpX3CtY-7kJ-69" value="" style="edgeStyle=orthogonalEdgeStyle;rounded=0;orthogonalLoop=1;jettySize=auto;html=1;fontSize=14;fontColor=#CC0000;" edge="1" parent="1" source="AnQ7yjys7WpX3CtY-7kJ-63" target="AnQ7yjys7WpX3CtY-7kJ-35">
          <mxGeometry relative="1" as="geometry">
            <Array as="points">
              <mxPoint x="600" y="480" />
              <mxPoint x="600" y="480" />
            </Array>
          </mxGeometry>
        </mxCell>
        <mxCell id="AnQ7yjys7WpX3CtY-7kJ-63" value="Category" style="text;html=1;strokeColor=#2D7600;fillColor=#60a917;align=center;verticalAlign=middle;whiteSpace=wrap;rounded=0;fontStyle=1;fontColor=#ffffff;" vertex="1" parent="1">
          <mxGeometry x="559.5" y="530" width="80.5" height="20" as="geometry" />
        </mxCell>
        <mxCell id="AnQ7yjys7WpX3CtY-7kJ-71" value="&lt;font style=&quot;font-size: 15px&quot;&gt;One to One&lt;br&gt;&lt;/font&gt;" style="text;html=1;strokeColor=none;fillColor=none;align=center;verticalAlign=middle;whiteSpace=wrap;rounded=0;fontColor=#CC0000;" vertex="1" parent="1">
          <mxGeometry x="600" y="510" width="50" as="geometry" />
        </mxCell>
        <mxCell id="AnQ7yjys7WpX3CtY-7kJ-72" value="&lt;font style=&quot;font-size: 15px&quot;&gt;One to One&lt;br&gt;&lt;/font&gt;" style="text;html=1;strokeColor=none;fillColor=none;align=center;verticalAlign=middle;whiteSpace=wrap;rounded=0;fontColor=#CC0000;" vertex="1" parent="1">
          <mxGeometry x="722.5" y="440" width="50" height="10" as="geometry" />
        </mxCell>
      </root>
    </mxGraphModel>
  </diagram>
</mxfile>
